<?xml version="1.0" standalone="no"?>
<!DOCTYPE svg PUBLIC "-//W3C//DTD SVG 20010904//EN"
 "http://www.w3.org/TR/2001/REC-SVG-20010904/DTD/svg10.dtd">
<svg version="1.0" xmlns="http://www.w3.org/2000/svg"
 width="200.000000pt" height="200.000000pt" viewBox="0 0 200.000000 200.000000"
 preserveAspectRatio="xMidYMid meet">

<g transform="translate(0.000000,200.000000) scale(0.100000,-0.100000)"
fill="green" stroke="none">
<path d="M590 1539 c-206 -160 -404 -313 -440 -340 -98 -76 -113 -118 -60
-171 25 -25 37 -29 65 -26 l35 4 0 -389 0 -389 29 -29 29 -29 751 0 750 0 28
24 28 24 3 394 3 394 34 -4 c28 -3 40 2 65 26 32 32 37 63 17 98 -14 25 -44
49 -529 422 -315 242 -371 282 -400 281 -28 0 -94 -47 -408 -290z m728 -154
l312 -240 0 -397 0 -398 -630 0 -630 0 0 398 0 397 313 242 c171 133 315 241
318 240 3 -1 146 -110 317 -242z"/>
<path d="M952 1363 c-18 -7 -42 -57 -42 -88 0 -16 -6 -25 -15 -25 -9 0 -32 -9
-53 -19 -136 -70 -162 -253 -51 -358 50 -48 97 -63 189 -63 45 0 90 -5 101
-10 22 -12 26 -59 7 -78 -17 -17 -153 -16 -170 1 -43 43 -114 45 -143 4 -20
-29 -18 -87 4 -114 26 -31 91 -73 112 -73 14 0 19 -7 19 -25 0 -68 60 -114
120 -93 33 11 60 52 60 92 0 19 7 26 29 31 52 11 111 62 137 118 40 87 28 170
-34 239 -53 59 -101 78 -197 78 -89 0 -125 15 -125 54 0 37 19 46 95 46 62 0
76 -3 101 -25 43 -37 94 -34 128 6 14 17 26 42 26 56 0 35 -86 121 -129 129
-25 5 -31 12 -31 31 0 29 -17 63 -39 80 -16 12 -75 16 -99 6z"/>
</g>
</svg>
